<svg width="39" height="31" viewBox="0 0 39 31" fill="none" xmlns="http://www.w3.org/2000/svg">
<path d="M38.9086 17.6748C38.9086 17.6748 38.9086 17.6577 38.9086 17.6492V15.5542C38.9086 14.9043 38.7086 14.2715 38.3586 13.7414C38.3586 13.7243 38.3586 13.6986 38.342 13.6815L33.8336 1.65886C33.5253 0.829421 32.7503 0.29071 31.892 0.29071H7.56696C7.42529 0.29071 7.28363 0.307812 7.14196 0.342016C6.45863 0.487382 5.87529 0.974787 5.62529 1.65886L1.14196 13.6131C0.783626 14.1433 0.56696 14.7846 0.56696 15.4858L0.550293 22.6942C0.550293 22.7883 0.56696 22.8738 0.575293 22.9679V28.7911C0.575293 29.9711 1.50863 30.9288 2.65863 30.9288C3.68363 30.9288 4.52529 30.1763 4.70029 29.1759C4.72529 29.0476 4.74196 28.9193 4.74196 28.7911V25.9863H6.40863H6.62529H8.62529L34.7336 26.0376V28.6286C34.7336 29.8086 35.667 30.7663 36.817 30.7663C37.842 30.7663 38.6836 30.0138 38.8586 29.0134C38.8836 28.8851 38.9003 28.7569 38.9003 28.6286V17.6663L38.9086 17.6748ZM8.99196 4.57474H30.4586L33.342 12.2621L6.12529 12.2107L8.99196 4.57474ZM8.38363 21.7451H5.48363C4.33363 21.7451 3.40029 20.7874 3.40029 19.6073C3.40029 18.4273 4.33363 17.4696 5.48363 17.4696H8.38363C9.53363 17.4696 10.467 18.4273 10.467 19.6073C10.467 20.7874 9.53363 21.7451 8.38363 21.7451ZM33.6086 21.7451H30.7086C29.5586 21.7451 28.6253 20.7874 28.6253 19.6073C28.6253 18.4273 29.5586 17.4696 30.7086 17.4696H33.6086C34.7586 17.4696 35.692 18.4273 35.692 19.6073C35.692 20.7874 34.7586 21.7451 33.6086 21.7451Z" fill="white"/>
</svg>
