<svg width="50" height="42" viewBox="0 0 50 42" fill="none" xmlns="http://www.w3.org/2000/svg">
<path d="M32.2917 8.19512C34.5833 8.19512 36.4583 6.35122 36.4583 4.09756C36.4583 1.8439 34.5833 0 32.2917 0C30 0 28.125 1.8439 28.125 4.09756C28.125 6.35122 30 8.19512 32.2917 8.19512ZM10.4167 21.5122C4.58333 21.5122 0 26.0195 0 31.7561C0 37.4927 4.58333 42 10.4167 42C16.25 42 20.8333 37.4927 20.8333 31.7561C20.8333 26.0195 16.25 21.5122 10.4167 21.5122ZM10.4167 38.9268C6.45833 38.9268 3.125 35.6488 3.125 31.7561C3.125 27.8634 6.45833 24.5854 10.4167 24.5854C14.375 24.5854 17.7083 27.8634 17.7083 31.7561C17.7083 35.6488 14.375 38.9268 10.4167 38.9268ZM22.5 18.439L27.5 13.522L29.1667 15.161C31.875 17.8244 35.4167 19.4634 39.7917 19.4634V15.3659C36.6667 15.3659 34.1667 14.1366 32.2917 12.2927L28.3333 8.4C27.2917 7.58049 26.25 7.17073 25 7.17073C23.75 7.17073 22.7083 7.58049 22.0833 8.4L16.25 14.1366C15.4167 14.9561 15 15.9805 15 17.0049C15 18.2341 15.4167 19.2585 16.25 19.8732L22.9167 25.6098V35.8537H27.0833V23.1512L22.5 18.439ZM39.5833 21.5122C33.75 21.5122 29.1667 26.0195 29.1667 31.7561C29.1667 37.4927 33.75 42 39.5833 42C45.4167 42 50 37.4927 50 31.7561C50 26.0195 45.4167 21.5122 39.5833 21.5122ZM39.5833 38.9268C35.625 38.9268 32.2917 35.6488 32.2917 31.7561C32.2917 27.8634 35.625 24.5854 39.5833 24.5854C43.5417 24.5854 46.875 27.8634 46.875 31.7561C46.875 35.6488 43.5417 38.9268 39.5833 38.9268Z" fill="#004CD9"/>
</svg>
